<svg width="30" height="30" viewBox="0 0 30 30" fill="none" xmlns="http://www.w3.org/2000/svg">
<rect x="0.5" y="0.5" width="29" height="29" rx="9.5" stroke="#51C488"/>
<path d="M15.0002 12.6255C13.5738 12.6255 12.3613 13.838 12.3613 15.2644C12.3613 16.6908 13.5738 17.9033 15.0002 17.9033C16.4266 17.9033 17.6391 16.6908 17.6391 15.2644C17.6391 13.838 16.4266 12.6255 15.0002 12.6255Z" fill="#51C488"/>
<path d="M18.3822 7.34766H11.6891C9.09816 7.34766 7.08301 9.36281 7.08301 11.8817V18.5749C7.08301 21.1658 9.09816 23.181 11.6891 23.181H18.3822C20.9012 23.181 22.9163 21.1658 22.9163 18.5749V11.8817C22.9163 9.36281 20.9012 7.34766 18.3822 7.34766ZM14.9997 19.4386C12.6966 19.4386 10.8974 17.5674 10.8974 15.3363C10.8974 13.1052 12.6966 11.1621 14.9997 11.1621C17.3027 11.1621 19.1019 13.0333 19.1019 15.2643C19.1019 17.4954 17.3027 19.4386 14.9997 19.4386ZM19.2459 12.0257C18.7421 12.0257 18.3103 11.5939 18.3103 11.0901C18.3103 10.5863 18.7421 10.1545 19.2459 10.1545C19.7497 10.1545 20.1815 10.5863 20.1815 11.0901C20.1815 11.5939 19.7497 12.0257 19.2459 12.0257Z" fill="#51C488"/>
</svg>
