<svg width="30" height="30" viewBox="0 0 30 30" fill="none" xmlns="http://www.w3.org/2000/svg">
<rect x="0.5" y="0.5" width="29" height="29" rx="9.5" stroke="#51C488"/>
<path d="M9.80629 13.5083C9.60654 13.5083 9.42898 13.587 9.29581 13.7332C9.15155 13.8794 9.08496 14.0593 9.08496 14.2729C9.08496 14.4866 9.15155 14.6552 9.29581 14.8126C9.44008 14.9588 9.60654 15.0375 9.80629 15.0375C10.006 15.0375 10.1836 14.9588 10.3279 14.8126C10.4721 14.6665 10.5498 14.4866 10.5498 14.2729C10.5498 14.0593 10.4721 13.8794 10.3279 13.7332C10.1836 13.5758 10.0171 13.5083 9.80629 13.5083Z" fill="#51C488"/>
<path d="M16.0319 13.4971C15.8321 13.4971 15.6546 13.5758 15.5214 13.722C15.3771 13.8681 15.3105 14.048 15.3105 14.2617C15.3105 14.4753 15.3771 14.644 15.5214 14.8014C15.6657 14.9476 15.8321 15.0263 16.0319 15.0263C16.2316 15.0263 16.4092 14.9476 16.5535 14.8014C16.6977 14.6552 16.7754 14.4753 16.7754 14.2617C16.7754 14.048 16.6977 13.8794 16.5535 13.722C16.4203 13.5645 16.2427 13.4971 16.0319 13.4971Z" fill="#51C488"/>
<path d="M20.194 13.5083C19.9942 13.5083 19.8167 13.587 19.6835 13.7332C19.5392 13.8794 19.4727 14.0593 19.4727 14.2729C19.4727 14.4866 19.5392 14.6552 19.6835 14.8126C19.8278 14.9588 19.9942 15.0375 20.194 15.0375C20.3937 15.0375 20.5713 14.9588 20.7156 14.8126C20.8598 14.6665 20.9375 14.4866 20.9375 14.2729C20.9375 14.0593 20.8598 13.8794 20.7156 13.7332C20.5713 13.5758 20.3937 13.5083 20.194 13.5083Z" fill="#51C488"/>
<path d="M22.0358 7.95361H7.96424C6.88779 7.95361 6 8.85316 6 9.94387V18.0061C6 19.0968 6.88779 19.9963 7.96424 19.9963H13.4908C13.4908 19.9963 14.5561 22.9536 14.9445 22.9536C15.3329 22.9536 16.4871 19.9963 16.4871 19.9963H22.0358C23.1122 19.9963 24 19.0968 24 18.0061V9.94387C24 8.85316 23.1122 7.95361 22.0358 7.95361ZM11.2269 15.3974C10.9494 15.7122 10.5166 15.8472 10.0506 15.8472C9.62885 15.8472 9.31813 15.7235 9.09618 15.5436H9.08508V15.7685H8.03083V11.102H9.08508V12.8899H9.10728C9.39581 12.6425 9.77312 12.5638 10.217 12.5413C10.5943 12.5301 10.9938 12.7662 11.238 13.0473C11.471 13.3284 11.6486 13.767 11.6486 14.2505C11.6486 14.779 11.5154 15.0825 11.2269 15.3974ZM13.5018 15.8134H12.4254C12.4254 15.8134 12.4254 13.3622 12.4254 12.9236C12.4254 12.2602 11.9038 12.1703 11.9038 12.1703V11.0121C11.9038 11.0121 13.4131 11.102 13.5018 12.9574C13.5018 13.4858 13.5018 15.8134 13.5018 15.8134ZM17.73 14.9251C17.6412 15.1388 17.508 15.3187 17.3305 15.4873C17.164 15.6448 16.9642 15.7685 16.7423 15.8584C16.5203 15.9484 16.2873 15.9933 16.0432 15.9933C15.799 15.9933 15.566 15.9484 15.3551 15.8584C15.1332 15.7685 14.9334 15.6448 14.767 15.4873C14.5894 15.3187 14.4562 15.1275 14.3674 14.9251C14.2787 14.7227 14.2343 14.4978 14.2343 14.2617C14.2343 14.0256 14.2787 13.8119 14.3674 13.5983C14.4562 13.3959 14.5894 13.2047 14.767 13.0361C14.9445 12.8787 15.1332 12.755 15.3551 12.665C15.5771 12.5751 15.8101 12.5301 16.0432 12.5301C16.2873 12.5301 16.5203 12.5751 16.7423 12.665C16.9642 12.755 17.164 12.8787 17.3305 13.0361C17.508 13.2047 17.6301 13.3846 17.73 13.5983C17.8187 13.8119 17.8631 14.0256 17.8631 14.2617C17.8631 14.4978 17.8187 14.7115 17.73 14.9251ZM21.9692 15.3861C21.9692 16.207 21.8138 16.7017 21.4587 17.0503C21.0259 17.4664 20.4155 17.4888 19.9051 17.4214V16.5781C20.3379 16.623 20.926 16.3307 20.926 15.7685V15.5548H20.9149C20.6708 15.8921 20.3268 16.0158 19.8496 16.0158C19.4168 16.0158 19.0395 15.8584 18.7842 15.5548C18.529 15.2512 18.4069 14.8464 18.4069 14.3404C18.4069 13.767 18.5512 13.3172 18.8286 12.9799C19.1171 12.6425 19.5166 12.4851 19.9827 12.4851C20.3933 12.4851 20.6597 12.5863 20.9149 12.8224H20.926V12.5638H21.9803V15.3861H21.9692Z" fill="#51C488"/>
</svg>
