<svg width="30" height="30" viewBox="0 0 30 30" fill="none" xmlns="http://www.w3.org/2000/svg">
<rect x="0.5" y="0.5" width="29" height="29" rx="9.5" stroke="#51C488"/>
<path d="M15.002 8.80615C15.0523 8.80616 20.7387 8.80749 22.165 9.19385C22.954 9.40409 23.5749 10.0283 23.7852 10.8237C24.1668 12.2628 24.1631 15.2642 24.1631 15.2642C24.1631 15.2851 24.1625 18.2705 23.7822 19.7046C23.572 20.4968 22.9502 21.121 22.1611 21.3345C20.7309 21.7192 14.998 21.7192 14.998 21.7192C14.9477 21.7192 9.25805 21.7176 7.83496 21.3345C7.04602 21.1243 6.42511 20.5 6.21484 19.7046C5.83458 18.2705 5.83301 15.2851 5.83301 15.2642C5.83301 15.2642 5.83301 12.2633 6.21777 10.8208C6.42798 10.0285 7.04978 9.40436 7.83887 9.19092C9.26892 8.80618 15.002 8.80615 15.002 8.80615ZM13.126 17.9907L17.9189 15.2642L13.126 12.5376V17.9907Z" fill="#51C488"/>
</svg>
