<svg width="80" height="80" viewBox="0 0 80 80" fill="none" xmlns="http://www.w3.org/2000/svg">
<g filter="url(#filter0_d_752_3)">
<path d="M38.6041 5.01399C37.4217 5.08514 36.4637 5.16723 35.7028 5.26027C30.2561 5.92796 25.1543 7.81611 20.5943 10.8536C15.6293 14.1592 11.573 18.6962 8.84692 23.9995C6.68465 28.2081 5.48035 32.477 5.06979 37.4081C4.97674 38.4643 4.97674 41.551 5.06979 42.6073C5.48035 47.5384 6.68465 51.8072 8.84692 56.0159C12.1861 62.5122 17.4905 67.8155 23.9883 71.1539C28.1978 73.3157 32.4676 74.5198 37.3998 74.9302C38.4563 75.0233 41.5437 75.0233 42.6002 74.9302C47.5324 74.5198 51.8022 73.3157 56.0117 71.1539C62.5095 67.8155 67.8139 62.5122 71.1531 56.0159C73.3153 51.8072 74.5196 47.5384 74.9302 42.6073C75.0233 41.551 75.0233 38.4643 74.9302 37.4081C74.5196 32.477 73.3153 28.2081 71.1531 23.9995C67.8139 17.5031 62.5095 12.1999 56.0117 8.86143C51.8897 6.74342 47.6309 5.52297 42.9286 5.11797C42.0309 5.03588 39.2829 4.97021 38.6041 5.01399ZM42.6495 9.27737C49.8205 9.89034 56.4387 12.9497 61.6117 18.0285C66.9763 23.2989 70.1568 30.1236 70.7699 37.6817C70.852 38.738 70.852 41.2774 70.7699 42.3337C70.1677 49.7221 67.1351 56.3826 61.984 61.6147C56.7015 66.9836 49.9081 70.1469 42.3265 70.7708C41.27 70.8584 38.73 70.8584 37.6735 70.7708C30.0864 70.1469 23.2876 66.9836 18.016 61.6201C12.854 56.3607 9.84321 49.7604 9.23011 42.3337C9.14252 41.2774 9.14252 38.738 9.23011 37.6817C9.85963 30.0853 13.0237 23.2989 18.3828 18.0285C23.1891 13.3109 29.2653 10.3227 35.8397 9.44704C38.1169 9.14603 40.3941 9.08582 42.6495 9.27737Z" fill="white"/>
<path d="M39.5 20C27.0735 20 17 27.8102 17 37.4444C17 43.6731 21.2114 49.1385 27.5464 52.2247C27.2018 53.3935 25.3317 59.7436 25.2573 60.2425C25.2573 60.2425 25.2125 60.6174 25.4594 60.7603C25.7062 60.9033 25.9965 60.7922 25.9965 60.7922C26.7044 60.695 34.2054 55.5142 35.5037 54.6144C36.8006 54.795 38.1362 54.8888 39.5 54.8888C51.9263 54.8888 62 47.0788 62 37.4444C62 27.8102 51.9263 20 39.5 20Z" fill="white"/>
<path d="M27.4163 43.3334C26.7026 43.3334 26.1222 42.8093 26.1222 42.1649V34.8961H24.103C23.4026 34.8961 22.833 34.3586 22.833 33.6981C22.833 33.0376 23.4029 32.5 24.103 32.5H30.7297C31.43 32.5 31.9997 33.0376 31.9997 33.6981C31.9997 34.3586 31.4298 34.8961 30.7297 34.8961H28.7105V42.1649C28.7105 42.8093 28.13 43.3334 27.4163 43.3334Z" fill="url(#paint0_linear_752_3)"/>
<path d="M38.1947 43.3334C37.6545 43.3334 37.2412 43.1259 37.1167 42.7922L36.4752 41.2039L32.5249 41.2037L31.883 42.793C31.7588 43.1263 31.3458 43.3334 30.8056 43.3334C30.5203 43.3334 30.2353 43.2749 29.9821 43.1643C29.625 43.0084 29.2817 42.58 29.6751 41.4243L32.7738 33.7094C32.9921 33.1227 33.6552 32.5182 34.499 32.5C35.3451 32.518 36.0082 33.1227 36.2269 33.7107L39.3244 41.4218C39.7186 42.5802 39.3753 43.0088 39.0182 43.1643C38.7645 43.2749 38.4799 43.3334 38.1947 43.3334ZM35.794 39.0332L34.5 35.5563L33.2061 39.0332H35.794Z" fill="url(#paint1_linear_752_3)"/>
<path d="M41.5796 43.3334C40.8921 43.3334 40.333 42.8216 40.333 42.193V33.744C40.333 33.058 40.9288 32.5 41.6609 32.5C42.3931 32.5 42.9888 33.058 42.9888 33.744V41.0527H45.7531C46.4405 41.0527 46.9997 41.5644 46.9997 42.193C46.9997 42.8216 46.4405 43.3334 45.7531 43.3334H41.5796Z" fill="url(#paint2_linear_752_3)"/>
<path d="M49.1169 43.3334C48.4088 43.3334 47.833 42.7838 47.833 42.108V33.7253C47.833 33.0496 48.4088 32.5 49.1169 32.5C49.8249 32.5 50.4008 33.0496 50.4008 33.7253V36.359L53.9828 32.9403C54.167 32.7645 54.4202 32.6677 54.6949 32.6677C55.0154 32.6677 55.3373 32.7996 55.5784 33.0296C55.8033 33.244 55.9375 33.5199 55.9559 33.8064C55.9745 34.0954 55.8737 34.3603 55.6726 34.5524L52.7468 37.3444L55.9071 41.3402C56.114 41.6014 56.2013 41.9236 56.1536 42.2479C56.1061 42.5722 55.9291 42.8589 55.6555 43.056C55.4308 43.218 55.164 43.3033 54.8834 43.3033C54.4764 43.3033 54.1028 43.1261 53.8576 42.8163L50.8469 39.0086L50.4014 39.4337V42.1072C50.4008 42.7838 49.8249 43.3334 49.1169 43.3334Z" fill="url(#paint3_linear_752_3)"/>
</g>
<defs>
<filter id="filter0_d_752_3" x="0" y="0" width="80" height="80" filterUnits="userSpaceOnUse" color-interpolation-filters="sRGB">
<feFlood flood-opacity="0" result="BackgroundImageFix"/>
<feColorMatrix in="SourceAlpha" type="matrix" values="0 0 0 0 0 0 0 0 0 0 0 0 0 0 0 0 0 0 127 0" result="hardAlpha"/>
<feOffset/>
<feGaussianBlur stdDeviation="2.5"/>
<feComposite in2="hardAlpha" operator="out"/>
<feColorMatrix type="matrix" values="0 0 0 0 0 0 0 0 0 0 0 0 0 0 0 0 0 0 0.05 0"/>
<feBlend mode="normal" in2="BackgroundImageFix" result="effect1_dropShadow_752_3"/>
<feBlend mode="normal" in="SourceGraphic" in2="effect1_dropShadow_752_3" result="shape"/>
</filter>
<linearGradient id="paint0_linear_752_3" x1="31.9997" y1="33.3784" x2="24.5754" y2="36.9545" gradientUnits="userSpaceOnUse">
<stop stop-color="#78FFB5"/>
<stop offset="1" stop-color="#51C488"/>
</linearGradient>
<linearGradient id="paint1_linear_752_3" x1="39.5" y1="33.3784" x2="31.6807" y2="37.4872" gradientUnits="userSpaceOnUse">
<stop stop-color="#78FFB5"/>
<stop offset="1" stop-color="#51C488"/>
</linearGradient>
<linearGradient id="paint2_linear_752_3" x1="46.9997" y1="33.3784" x2="41.0745" y2="35.454" gradientUnits="userSpaceOnUse">
<stop stop-color="#78FFB5"/>
<stop offset="1" stop-color="#51C488"/>
</linearGradient>
<linearGradient id="paint3_linear_752_3" x1="56.1663" y1="33.3784" x2="49.1889" y2="36.4337" gradientUnits="userSpaceOnUse">
<stop stop-color="#78FFB5"/>
<stop offset="1" stop-color="#51C488"/>
</linearGradient>
</defs>
</svg>
