<svg width="36" height="36" viewBox="0 0 36 36" fill="none" xmlns="http://www.w3.org/2000/svg">
<circle cx="18" cy="18" r="17.5" fill="black" fill-opacity="0.1" stroke="url(#paint0_linear_840_1500)"/>
<path d="M18.0204 8C11.934 8 7 11.8254 7 16.5442C7 19.595 9.06272 22.2719 12.1656 23.7835C11.9968 24.356 11.0808 27.4663 11.0444 27.7106C11.0444 27.7106 11.0224 27.8942 11.1434 27.9642C11.2643 28.0343 11.4065 27.9799 11.4065 27.9799C11.7532 27.9322 15.4271 25.3947 16.063 24.954C16.6983 25.0424 17.3524 25.0884 18.0204 25.0884C24.1067 25.0884 29.0408 21.2631 29.0408 16.5442C29.0408 11.8254 24.1067 8 18.0204 8Z" fill="url(#paint1_linear_840_1500)"/>
<path d="M12.1013 19.4282C11.7518 19.4282 11.4675 19.1715 11.4675 18.8559V15.2957H10.4785C10.1354 15.2957 9.85645 15.0324 9.85645 14.7089C9.85645 14.3854 10.1356 14.1221 10.4785 14.1221H13.7242C14.0672 14.1221 14.3462 14.3854 14.3462 14.7089C14.3462 15.0324 14.0671 15.2957 13.7242 15.2957H12.7352V18.8559C12.7352 19.1715 12.4509 19.4282 12.1013 19.4282Z" fill="white"/>
<path d="M17.3817 19.4282C17.1171 19.4282 16.9147 19.3266 16.8537 19.1631L16.5395 18.3852L14.6046 18.3851L14.2902 19.1635C14.2294 19.3268 14.0271 19.4282 13.7625 19.4282C13.6228 19.4282 13.4832 19.3996 13.3592 19.3454C13.1843 19.269 13.0161 19.0592 13.2088 18.4931L14.7265 14.7144C14.8335 14.4271 15.1582 14.131 15.5715 14.1221C15.986 14.1309 16.3107 14.4271 16.4179 14.715L17.935 18.4919C18.1281 19.0593 17.9599 19.2692 17.785 19.3454C17.6608 19.3996 17.5214 19.4282 17.3817 19.4282ZM16.2058 17.322L15.572 15.619L14.9383 17.322H16.2058Z" fill="white"/>
<path d="M19.0393 19.4282C18.7026 19.4282 18.4287 19.1776 18.4287 18.8697V14.7314C18.4287 14.3953 18.7205 14.1221 19.0791 14.1221C19.4377 14.1221 19.7295 14.3953 19.7295 14.7314V18.3111H21.0834C21.4202 18.3111 21.694 18.5617 21.694 18.8697C21.694 19.1776 21.4202 19.4282 21.0834 19.4282H19.0393Z" fill="white"/>
<path d="M22.7294 19.4282C22.3826 19.4282 22.1006 19.159 22.1006 18.828V14.7222C22.1006 14.3912 22.3826 14.1221 22.7294 14.1221C23.0762 14.1221 23.3583 14.3912 23.3583 14.7222V16.0122L25.1127 14.3377C25.203 14.2516 25.3269 14.2042 25.4615 14.2042C25.6185 14.2042 25.7761 14.2688 25.8943 14.3814C26.0044 14.4865 26.0701 14.6216 26.0791 14.7619C26.0883 14.9035 26.0389 15.0332 25.9404 15.1273L24.5074 16.4948L26.0552 18.4519C26.1566 18.5799 26.1994 18.7377 26.176 18.8966C26.1527 19.0554 26.066 19.1958 25.932 19.2924C25.8219 19.3717 25.6913 19.4135 25.5539 19.4135C25.3545 19.4135 25.1715 19.3267 25.0514 19.1749L23.5768 17.3099L23.3586 17.5182V18.8276C23.3583 19.159 23.0762 19.4282 22.7294 19.4282Z" fill="white"/>
<defs>
<linearGradient id="paint0_linear_840_1500" x1="36" y1="2.91892" x2="8.8695" y2="18.3631" gradientUnits="userSpaceOnUse">
<stop stop-color="#78FFB5"/>
<stop offset="1" stop-color="#51C488"/>
</linearGradient>
<linearGradient id="paint1_linear_840_1500" x1="29.0408" y1="9.62162" x2="13.2588" y2="19.5224" gradientUnits="userSpaceOnUse">
<stop stop-color="#78FFB5"/>
<stop offset="1" stop-color="#51C488"/>
</linearGradient>
</defs>
</svg>
