<svg width="80" height="80" viewBox="0 0 80 80" fill="none" xmlns="http://www.w3.org/2000/svg">
<g filter="url(#filter0_d_752_1388)">
<path d="M38.6041 5.014C37.4217 5.08514 36.4637 5.16723 35.7028 5.26027C30.2561 5.92797 25.1543 7.81611 20.5943 10.8536C15.6293 14.1592 11.573 18.6962 8.84692 23.9995C6.68465 28.2081 5.48035 32.477 5.06979 37.4081C4.97674 38.4643 4.97674 41.551 5.06979 42.6073C5.48035 47.5384 6.68465 51.8072 8.84692 56.0159C12.1861 62.5122 17.4905 67.8155 23.9883 71.1539C28.1978 73.3157 32.4676 74.5198 37.3998 74.9302C38.4563 75.0233 41.5437 75.0233 42.6002 74.9302C47.5324 74.5198 51.8022 73.3157 56.0117 71.1539C62.5095 67.8155 67.8139 62.5122 71.1531 56.0159C73.3153 51.8072 74.5196 47.5384 74.9302 42.6073C75.0233 41.551 75.0233 38.4643 74.9302 37.4081C74.5196 32.477 73.3153 28.2081 71.1531 23.9995C67.8139 17.5031 62.5095 12.1999 56.0117 8.86144C51.8897 6.74343 47.6309 5.52298 42.9286 5.11798C42.0309 5.03588 39.2829 4.97021 38.6041 5.014ZM42.6495 9.27738C49.8205 9.89035 56.4387 12.9497 61.6117 18.0285C66.9763 23.2989 70.1568 30.1236 70.7699 37.6817C70.852 38.738 70.852 41.2774 70.7699 42.3337C70.1677 49.7221 67.1351 56.3826 61.984 61.6147C56.7015 66.9836 49.9081 70.1469 42.3265 70.7708C41.27 70.8584 38.73 70.8584 37.6735 70.7708C30.0864 70.1469 23.2876 66.9836 18.016 61.6201C12.854 56.3607 9.84321 49.7604 9.23011 42.3337C9.14252 41.2774 9.14252 38.738 9.23011 37.6817C9.85963 30.0853 13.0237 23.2989 18.3828 18.0285C23.1891 13.3109 29.2653 10.3227 35.8397 9.44704C38.1169 9.14603 40.3941 9.08583 42.6495 9.27738Z" fill="white"/>
<path d="M34.6118 22.0421C34.3919 22.1022 31.847 23.5604 31.6963 23.7127C31.3584 24.0492 31.281 24.5419 31.4927 24.9506C31.7126 25.3712 36.1713 32.955 36.2771 33.0912C36.5133 33.3836 37.0345 33.5559 37.401 33.4557C37.5883 33.4077 40.0965 31.9935 40.3123 31.8172C40.5892 31.5889 40.7398 31.1001 40.6421 30.7475C40.6177 30.6594 39.5264 28.7565 38.2153 26.521C36.2853 23.2279 35.7967 22.4227 35.646 22.2865C35.3691 22.0301 34.9782 21.9379 34.6118 22.0421Z" fill="white"/>
<path d="M30.1855 25.6244C29.3511 26.1465 28.9339 26.4598 28.4895 26.8976C27.1872 28.1788 26.8402 29.452 27.0625 32.0987C27.3822 35.8821 29.203 40.9387 31.9322 45.6137C34.4938 49.9995 37.5701 53.6303 40.4124 55.6224C41.8745 56.6466 42.783 57 43.9605 57C44.7481 57 45.4031 56.8394 46.3232 56.4176C46.7521 56.2168 47.7463 55.6746 47.7814 55.6184C47.7931 55.5943 43.3483 47.6178 43.1105 47.2323C43.0871 47.1921 43.0442 47.2002 42.9272 47.2604C42.6582 47.401 42.2137 47.5375 41.8667 47.5817C40.5918 47.7424 39.0829 46.9873 37.6832 45.4852C35.952 43.6296 34.5796 40.8945 34.1546 38.4445C33.8388 36.6452 34.0767 35.1953 34.8369 34.2756C34.9656 34.1189 35.3984 33.7454 35.4842 33.7173C35.5154 33.7053 34.6381 32.1068 33.1838 29.5042C31.8893 27.1988 30.821 25.2991 30.8054 25.283C30.7898 25.2629 30.513 25.4196 30.1855 25.6244Z" fill="white"/>
<path d="M46.7885 43.3409C46.5642 43.369 46.6009 43.3529 45.1041 44.1994C44.4353 44.5765 43.8235 44.9456 43.746 45.0178C43.4524 45.2947 43.33 45.76 43.4524 46.1131C43.5217 46.3137 48.163 54.2411 48.3342 54.4497C48.6238 54.8108 49.1989 54.9191 49.6638 54.6984C50.0146 54.5339 52.168 53.3063 52.3352 53.1739C52.5636 52.9934 52.7022 52.6925 52.7022 52.3635C52.7022 52.2151 52.6818 52.0386 52.6533 51.9784C52.5146 51.6574 47.8611 43.7822 47.7347 43.6538C47.4859 43.397 47.1597 43.2887 46.7885 43.3409Z" fill="white"/>
</g>
<defs>
<filter id="filter0_d_752_1388" x="0" y="0" width="80" height="80" filterUnits="userSpaceOnUse" color-interpolation-filters="sRGB">
<feFlood flood-opacity="0" result="BackgroundImageFix"/>
<feColorMatrix in="SourceAlpha" type="matrix" values="0 0 0 0 0 0 0 0 0 0 0 0 0 0 0 0 0 0 127 0" result="hardAlpha"/>
<feOffset/>
<feGaussianBlur stdDeviation="2.5"/>
<feComposite in2="hardAlpha" operator="out"/>
<feColorMatrix type="matrix" values="0 0 0 0 0 0 0 0 0 0 0 0 0 0 0 0 0 0 0.05 0"/>
<feBlend mode="normal" in2="BackgroundImageFix" result="effect1_dropShadow_752_1388"/>
<feBlend mode="normal" in="SourceGraphic" in2="effect1_dropShadow_752_1388" result="shape"/>
</filter>
</defs>
</svg>
