<svg width="36" height="36" viewBox="0 0 36 36" fill="none" xmlns="http://www.w3.org/2000/svg">
<circle cx="18" cy="18" r="17.5" fill="#111111" fill-opacity="0.1" stroke="url(#paint0_linear_727_3473)"/>
<path d="M14.7845 7.02647C14.6463 7.06425 13.0467 7.98086 12.952 8.07655C12.7395 8.28808 12.6909 8.59781 12.824 8.85467C12.9622 9.11907 15.7648 13.886 15.8313 13.9716C15.9798 14.1554 16.3074 14.2637 16.5377 14.2007C16.6554 14.1705 18.232 13.2816 18.3677 13.1708C18.5417 13.0273 18.6364 12.7201 18.575 12.4985C18.5596 12.4431 17.8737 11.2469 17.0496 9.84179C15.8364 7.77185 15.5293 7.2657 15.4346 7.18008C15.2606 7.01892 15.0149 6.961 14.7845 7.02647Z" fill="url(#paint1_linear_727_3473)"/>
<path d="M12.0023 9.27826C11.4778 9.60645 11.2156 9.80336 10.9362 10.0785C10.1177 10.8839 9.89956 11.6841 10.0393 13.3478C10.2402 15.7259 11.3847 18.9043 13.1002 21.8429C14.7104 24.5997 16.644 26.8819 18.4306 28.1341C19.3496 28.7778 19.9206 29 20.6608 29C21.1558 29 21.5675 28.899 22.1459 28.6339C22.4155 28.5077 23.0404 28.1669 23.0625 28.1316C23.0699 28.1164 20.276 23.1027 20.1265 22.8603C20.1118 22.8351 20.0848 22.8401 20.0113 22.878C19.8422 22.9663 19.5628 23.0522 19.3447 23.0799C18.5433 23.1809 17.5949 22.7063 16.7151 21.7621C15.6269 20.5958 14.7643 18.8766 14.4972 17.3366C14.2986 16.2056 14.4481 15.2942 14.926 14.7161C15.0069 14.6177 15.2789 14.3829 15.3329 14.3652C15.3525 14.3576 14.801 13.3529 13.8869 11.717C13.0733 10.2679 12.4018 9.07377 12.392 9.06367C12.3822 9.05105 12.2082 9.14951 12.0023 9.27826Z" fill="url(#paint2_linear_727_3473)"/>
<path d="M22.4391 20.4143C22.2981 20.432 22.3212 20.4219 21.3803 20.954C20.9599 21.191 20.5754 21.423 20.5267 21.4684C20.3421 21.6424 20.2652 21.9349 20.3421 22.1568C20.3857 22.2829 23.303 27.2658 23.4107 27.397C23.5927 27.6239 23.9542 27.692 24.2464 27.5533C24.4669 27.4499 25.8204 26.6783 25.9255 26.5951C26.0691 26.4816 26.1563 26.2924 26.1563 26.0857C26.1563 25.9924 26.1434 25.8814 26.1255 25.8436C26.0383 25.6418 23.1133 20.6917 23.0338 20.611C22.8775 20.4496 22.6724 20.3815 22.4391 20.4143Z" fill="url(#paint3_linear_727_3473)"/>
<defs>
<linearGradient id="paint0_linear_727_3473" x1="36" y1="2.91892" x2="8.8695" y2="18.3631" gradientUnits="userSpaceOnUse">
<stop stop-color="#78FFB5"/>
<stop offset="1" stop-color="#51C488"/>
</linearGradient>
<linearGradient id="paint1_linear_727_3473" x1="18.5938" y1="13.6334" x2="13.784" y2="11.417" gradientUnits="userSpaceOnUse">
<stop stop-color="#78FFB5"/>
<stop offset="1" stop-color="#51C488"/>
</linearGradient>
<linearGradient id="paint2_linear_727_3473" x1="23.0625" y1="27.3835" x2="11.6199" y2="23.1158" gradientUnits="userSpaceOnUse">
<stop stop-color="#78FFB5"/>
<stop offset="1" stop-color="#51C488"/>
</linearGradient>
<linearGradient id="paint3_linear_727_3473" x1="26.1563" y1="27.0397" x2="21.3465" y2="24.8232" gradientUnits="userSpaceOnUse">
<stop stop-color="#78FFB5"/>
<stop offset="1" stop-color="#51C488"/>
</linearGradient>
</defs>
</svg>
