<svg width="80" height="80" viewBox="0 0 80 80" fill="none" xmlns="http://www.w3.org/2000/svg">
<g filter="url(#filter0_d_752_434)">
<path d="M38.6041 5.014C37.4217 5.08514 36.4637 5.16724 35.7028 5.26028C30.2561 5.92797 25.1543 7.81612 20.5943 10.8536C15.6293 14.1592 11.573 18.6962 8.84692 23.9995C6.68465 28.2081 5.48035 32.477 5.06979 37.4081C4.97674 38.4643 4.97674 41.551 5.06979 42.6073C5.48035 47.5384 6.68465 51.8072 8.84692 56.0159C12.1861 62.5122 17.4905 67.8155 23.9883 71.1539C28.1978 73.3157 32.4676 74.5198 37.3998 74.9302C38.4563 75.0233 41.5437 75.0233 42.6002 74.9302C47.5324 74.5198 51.8022 73.3157 56.0117 71.1539C62.5095 67.8155 67.8139 62.5122 71.1531 56.0159C73.3154 51.8072 74.5196 47.5384 74.9302 42.6073C75.0233 41.551 75.0233 38.4643 74.9302 37.4081C74.5196 32.477 73.3154 28.2081 71.1531 23.9995C67.8139 17.5031 62.5095 12.1999 56.0117 8.86144C51.8897 6.74343 47.6309 5.52297 42.9286 5.11798C42.0309 5.03588 39.2829 4.97021 38.6041 5.014ZM42.6495 9.27738C49.8205 9.89034 56.4387 12.9497 61.6117 18.0285C66.9763 23.2989 70.1568 30.1236 70.7699 37.6817C70.852 38.738 70.852 41.2774 70.7699 42.3337C70.1677 49.7221 67.1351 56.3826 61.984 61.6147C56.7015 66.9836 49.9081 70.1469 42.3265 70.7708C41.27 70.8584 38.73 70.8584 37.6735 70.7708C30.0864 70.1469 23.2876 66.9836 18.016 61.6201C12.854 56.3607 9.84321 49.7604 9.23011 42.3337C9.14252 41.2774 9.14252 38.738 9.23011 37.6817C9.85963 30.0853 13.0237 23.2989 18.3828 18.0285C23.1891 13.3109 29.2653 10.3227 35.8397 9.44704C38.1169 9.14603 40.3941 9.08583 42.6495 9.27738Z" fill="white"/>
<path d="M37.3125 30.3672L25.0625 42.6172L22 39.5L39.5 22L57 39.5L53.9375 42.6172L41.6875 30.3672L41.6875 57L37.3125 57L37.3125 30.3672Z" fill="white"/>
</g>
<defs>
<filter id="filter0_d_752_434" x="0" y="0" width="80" height="80" filterUnits="userSpaceOnUse" color-interpolation-filters="sRGB">
<feFlood flood-opacity="0" result="BackgroundImageFix"/>
<feColorMatrix in="SourceAlpha" type="matrix" values="0 0 0 0 0 0 0 0 0 0 0 0 0 0 0 0 0 0 127 0" result="hardAlpha"/>
<feOffset/>
<feGaussianBlur stdDeviation="2.5"/>
<feComposite in2="hardAlpha" operator="out"/>
<feColorMatrix type="matrix" values="0 0 0 0 0 0 0 0 0 0 0 0 0 0 0 0 0 0 0.05 0"/>
<feBlend mode="normal" in2="BackgroundImageFix" result="effect1_dropShadow_752_434"/>
<feBlend mode="normal" in="SourceGraphic" in2="effect1_dropShadow_752_434" result="shape"/>
</filter>
</defs>
</svg>
