<svg width="86" height="87" viewBox="0 0 86 87" fill="none" xmlns="http://www.w3.org/2000/svg">
<path d="M73.6953 51.7856C74.3549 51.7857 74.8896 52.3204 74.8896 52.98V73.2056C74.8896 73.8652 74.3549 74.4008 73.6953 74.4009H68.5459C67.8862 74.4009 67.3516 73.8652 67.3516 73.2056V64.9771H18.3525V73.2056C18.3525 73.8652 17.8179 74.4009 17.1582 74.4009H12.0088C11.3492 74.4007 10.8145 73.8652 10.8145 73.2056V52.98C10.8145 52.3204 11.3493 51.7858 12.0088 51.7856H73.6953Z" fill="url(#paint0_linear_233_736)"/>
<path d="M14.584 16.9874C14.584 14.3487 16.7231 12.2096 19.3618 12.2096H66.3434C68.9821 12.2096 71.1212 14.3487 71.1212 16.9874V31.0553H14.584V16.9874Z" fill="url(#paint1_linear_233_736)"/>
<g filter="url(#filter0_dii_233_736)">
<path d="M20.2373 22.6412C20.2373 20.0025 22.3764 17.8634 25.0151 17.8634H36.1898C38.8285 17.8634 40.9676 20.0025 40.9676 22.6412V27.2863H20.2373V22.6412Z" fill="url(#paint2_linear_233_736)"/>
</g>
<g filter="url(#filter1_dii_233_736)">
<path d="M44.7373 22.6412C44.7373 20.0025 46.8764 17.8634 49.5151 17.8634H60.6898C63.3285 17.8634 65.4676 20.0025 65.4676 22.6412V27.2863H44.7373V22.6412Z" fill="url(#paint3_linear_233_736)"/>
</g>
<g filter="url(#filter2_i_233_736)">
<path d="M5.16113 49.0515V60.2663C5.16113 61.8275 6.42676 63.0931 7.98799 63.0931C9.54922 63.0931 10.8149 61.8275 10.8149 60.2663V56.5635C10.8149 53.9248 12.9539 51.7857 15.5926 51.7857H70.1125C72.7512 51.7857 74.8903 53.9248 74.8903 56.5635V60.2663C74.8903 61.8275 76.156 63.0931 77.7172 63.0931C79.2784 63.0931 80.544 61.8275 80.544 60.2663V49.0515C80.544 48.3694 80.398 47.6953 80.1158 47.0744L73.8588 33.3089C72.1556 29.562 68.6433 26.9559 64.5635 26.4119L50.7457 24.5695C45.5068 23.871 40.1984 23.871 34.9594 24.5695L21.1416 26.4119C17.0619 26.9559 13.5496 29.562 11.8464 33.3089L5.58938 47.0744C5.30716 47.6953 5.16113 48.3694 5.16113 49.0515Z" fill="url(#paint4_linear_233_736)"/>
</g>
<defs>
<filter id="filter0_dii_233_736" x="17.8484" y="13.0856" width="27.8972" height="16.5895" filterUnits="userSpaceOnUse" color-interpolation-filters="sRGB">
<feFlood flood-opacity="0" result="BackgroundImageFix"/>
<feColorMatrix in="SourceAlpha" type="matrix" values="0 0 0 0 0 0 0 0 0 0 0 0 0 0 0 0 0 0 127 0" result="hardAlpha"/>
<feOffset/>
<feGaussianBlur stdDeviation="1.19445"/>
<feComposite in2="hardAlpha" operator="out"/>
<feColorMatrix type="matrix" values="0 0 0 0 0 0 0 0 0 0 0 0 0 0 0 0 0 0 0.1 0"/>
<feBlend mode="normal" in2="BackgroundImageFix" result="effect1_dropShadow_233_736"/>
<feBlend mode="normal" in="SourceGraphic" in2="effect1_dropShadow_233_736" result="shape"/>
<feColorMatrix in="SourceAlpha" type="matrix" values="0 0 0 0 0 0 0 0 0 0 0 0 0 0 0 0 0 0 127 0" result="hardAlpha"/>
<feOffset dx="4.77779" dy="-4.77779"/>
<feGaussianBlur stdDeviation="5.97224"/>
<feComposite in2="hardAlpha" operator="arithmetic" k2="-1" k3="1"/>
<feColorMatrix type="matrix" values="0 0 0 0 0.827451 0 0 0 0 0.921569 0 0 0 0 0.85098 0 0 0 1 0"/>
<feBlend mode="normal" in2="shape" result="effect2_innerShadow_233_736"/>
<feColorMatrix in="SourceAlpha" type="matrix" values="0 0 0 0 0 0 0 0 0 0 0 0 0 0 0 0 0 0 127 0" result="hardAlpha"/>
<feOffset dy="-2.3889"/>
<feGaussianBlur stdDeviation="1.19445"/>
<feComposite in2="hardAlpha" operator="arithmetic" k2="-1" k3="1"/>
<feColorMatrix type="matrix" values="0 0 0 0 0 0 0 0 0 0 0 0 0 0 0 0 0 0 0.06 0"/>
<feBlend mode="normal" in2="effect2_innerShadow_233_736" result="effect3_innerShadow_233_736"/>
</filter>
<filter id="filter1_dii_233_736" x="42.3484" y="13.0856" width="27.8972" height="16.5895" filterUnits="userSpaceOnUse" color-interpolation-filters="sRGB">
<feFlood flood-opacity="0" result="BackgroundImageFix"/>
<feColorMatrix in="SourceAlpha" type="matrix" values="0 0 0 0 0 0 0 0 0 0 0 0 0 0 0 0 0 0 127 0" result="hardAlpha"/>
<feOffset/>
<feGaussianBlur stdDeviation="1.19445"/>
<feComposite in2="hardAlpha" operator="out"/>
<feColorMatrix type="matrix" values="0 0 0 0 0 0 0 0 0 0 0 0 0 0 0 0 0 0 0.1 0"/>
<feBlend mode="normal" in2="BackgroundImageFix" result="effect1_dropShadow_233_736"/>
<feBlend mode="normal" in="SourceGraphic" in2="effect1_dropShadow_233_736" result="shape"/>
<feColorMatrix in="SourceAlpha" type="matrix" values="0 0 0 0 0 0 0 0 0 0 0 0 0 0 0 0 0 0 127 0" result="hardAlpha"/>
<feOffset dx="4.77779" dy="-4.77779"/>
<feGaussianBlur stdDeviation="5.97224"/>
<feComposite in2="hardAlpha" operator="arithmetic" k2="-1" k3="1"/>
<feColorMatrix type="matrix" values="0 0 0 0 0.827451 0 0 0 0 0.921569 0 0 0 0 0.85098 0 0 0 1 0"/>
<feBlend mode="normal" in2="shape" result="effect2_innerShadow_233_736"/>
<feColorMatrix in="SourceAlpha" type="matrix" values="0 0 0 0 0 0 0 0 0 0 0 0 0 0 0 0 0 0 127 0" result="hardAlpha"/>
<feOffset dy="-2.3889"/>
<feGaussianBlur stdDeviation="1.19445"/>
<feComposite in2="hardAlpha" operator="arithmetic" k2="-1" k3="1"/>
<feColorMatrix type="matrix" values="0 0 0 0 0 0 0 0 0 0 0 0 0 0 0 0 0 0 0.06 0"/>
<feBlend mode="normal" in2="effect2_innerShadow_233_736" result="effect3_innerShadow_233_736"/>
</filter>
<filter id="filter2_i_233_736" x="5.16113" y="19.2679" width="80.1606" height="43.8252" filterUnits="userSpaceOnUse" color-interpolation-filters="sRGB">
<feFlood flood-opacity="0" result="BackgroundImageFix"/>
<feBlend mode="normal" in="SourceGraphic" in2="BackgroundImageFix" result="shape"/>
<feColorMatrix in="SourceAlpha" type="matrix" values="0 0 0 0 0 0 0 0 0 0 0 0 0 0 0 0 0 0 127 0" result="hardAlpha"/>
<feOffset dx="4.77779" dy="-4.77779"/>
<feGaussianBlur stdDeviation="5.97224"/>
<feComposite in2="hardAlpha" operator="arithmetic" k2="-1" k3="1"/>
<feColorMatrix type="matrix" values="0 0 0 0 0.827451 0 0 0 0 0.921569 0 0 0 0 0.85098 0 0 0 1 0"/>
<feBlend mode="normal" in2="shape" result="effect1_innerShadow_233_736"/>
</filter>
<linearGradient id="paint0_linear_233_736" x1="63.5753" y1="57.9231" x2="49.2862" y2="78.7658" gradientUnits="userSpaceOnUse">
<stop stop-color="#78FFB5"/>
<stop offset="1" stop-color="#51C488"/>
</linearGradient>
<linearGradient id="paint1_linear_233_736" x1="61.1379" y1="17.3241" x2="49.4898" y2="35.3142" gradientUnits="userSpaceOnUse">
<stop stop-color="#78FFB5"/>
<stop offset="1" stop-color="#51C488"/>
</linearGradient>
<linearGradient id="paint2_linear_233_736" x1="22.8373" y1="26.4871" x2="28.2794" y2="14.9401" gradientUnits="userSpaceOnUse">
<stop offset="0.009" stop-color="#F8FAF5"/>
<stop offset="0.989" stop-color="#F5F9F6"/>
</linearGradient>
<linearGradient id="paint3_linear_233_736" x1="47.3373" y1="26.4871" x2="52.7794" y2="14.9401" gradientUnits="userSpaceOnUse">
<stop offset="0.009" stop-color="#F8FAF5"/>
<stop offset="0.989" stop-color="#F5F9F6"/>
</linearGradient>
<linearGradient id="paint4_linear_233_736" x1="14.6155" y1="59.7365" x2="39.5044" y2="14.015" gradientUnits="userSpaceOnUse">
<stop offset="0.009" stop-color="#F8FAF5"/>
<stop offset="0.989" stop-color="#F5F9F6"/>
</linearGradient>
</defs>
</svg>
