<svg width="86" height="87" viewBox="0 0 86 87" fill="none" xmlns="http://www.w3.org/2000/svg">
<g filter="url(#filter0_i_233_749)">
<path d="M23.8232 13.4642C23.8232 11.0894 25.7484 9.16418 28.1232 9.16418H57.3632C59.7381 9.16418 61.6632 11.0894 61.6632 13.4642V77.9642H23.8232V13.4642Z" fill="url(#paint0_linear_233_749)"/>
</g>
<path d="M35.8633 64.6341C35.8633 63.4467 36.8259 62.4841 38.0133 62.4841H47.4733C48.6607 62.4841 49.6233 63.4467 49.6233 64.6341V77.9641H35.8633V64.6341Z" fill="url(#paint1_linear_233_749)"/>
<path d="M61.6641 38.4042H74.9941C76.1815 38.4042 77.1441 39.3668 77.1441 40.5542V75.8142C77.1441 77.0016 76.1815 77.9642 74.9941 77.9642H61.6641V38.4042Z" fill="url(#paint2_linear_233_749)"/>
<path d="M8.34375 40.5542C8.34375 39.3668 9.30634 38.4042 10.4938 38.4042H23.8237V77.9642H10.4937C9.30634 77.9642 8.34375 77.0016 8.34375 75.8142V40.5542Z" fill="url(#paint3_linear_233_749)"/>
<rect x="65.1035" y="43.5642" width="8.6" height="5.16" rx="1.075" fill="white"/>
<rect x="11.7832" y="43.5642" width="8.6" height="5.16" rx="1.075" fill="white"/>
<rect x="65.1035" y="53.884" width="8.6" height="5.16" rx="1.075" fill="white"/>
<rect x="11.7832" y="53.884" width="8.6" height="5.16" rx="1.075" fill="white"/>
<path d="M46.1826 22.3866C46.1826 22.6834 46.4233 22.9241 46.7201 22.9241H52.526C52.8228 22.9241 53.0635 23.1647 53.0635 23.4616V27.5467C53.0635 27.8436 52.8228 28.0842 52.526 28.0842H46.7201C46.4233 28.0842 46.1826 28.3249 46.1826 28.6217V34.4266C46.1826 34.7235 45.942 34.9641 45.6451 34.9641H39.8402C39.5434 34.9641 39.3027 34.7235 39.3027 34.4266V28.6217C39.3027 28.3249 39.0621 28.0842 38.7652 28.0842H32.9604C32.6635 28.0842 32.4229 27.8436 32.4229 27.5467V23.4616C32.4229 23.1647 32.6635 22.9241 32.9604 22.9241H38.7652C39.0621 22.9241 39.3027 22.6834 39.3027 22.3866V16.5817C39.3027 16.2848 39.5434 16.0442 39.8402 16.0442H45.6451C45.942 16.0442 46.1826 16.2848 46.1826 16.5817V22.3866Z" fill="url(#paint4_linear_233_749)"/>
<defs>
<filter id="filter0_i_233_749" x="23.8232" y="4.86418" width="42.1398" height="73.0999" filterUnits="userSpaceOnUse" color-interpolation-filters="sRGB">
<feFlood flood-opacity="0" result="BackgroundImageFix"/>
<feBlend mode="normal" in="SourceGraphic" in2="BackgroundImageFix" result="shape"/>
<feColorMatrix in="SourceAlpha" type="matrix" values="0 0 0 0 0 0 0 0 0 0 0 0 0 0 0 0 0 0 127 0" result="hardAlpha"/>
<feOffset dx="4.3" dy="-4.3"/>
<feGaussianBlur stdDeviation="5.375"/>
<feComposite in2="hardAlpha" operator="arithmetic" k2="-1" k3="1"/>
<feColorMatrix type="matrix" values="0 0 0 0 0.827451 0 0 0 0 0.921569 0 0 0 0 0.85098 0 0 0 1 0"/>
<feBlend mode="normal" in2="shape" result="effect1_innerShadow_233_749"/>
</filter>
<linearGradient id="paint0_linear_233_749" x1="28.5691" y1="72.1289" x2="71.2225" y2="49.5038" gradientUnits="userSpaceOnUse">
<stop offset="0.009" stop-color="#F8FAF5"/>
<stop offset="0.989" stop-color="#F5F9F6"/>
</linearGradient>
<linearGradient id="paint1_linear_233_749" x1="47.1936" y1="66.6852" x2="39.2581" y2="70.3166" gradientUnits="userSpaceOnUse">
<stop stop-color="#78FFB5"/>
<stop offset="1" stop-color="#51C488"/>
</linearGradient>
<linearGradient id="paint2_linear_233_749" x1="74.4106" y1="49.1403" x2="64.0348" y2="51.2305" gradientUnits="userSpaceOnUse">
<stop stop-color="#78FFB5"/>
<stop offset="1" stop-color="#51C488"/>
</linearGradient>
<linearGradient id="paint3_linear_233_749" x1="21.0903" y1="49.1403" x2="10.7145" y2="51.2305" gradientUnits="userSpaceOnUse">
<stop stop-color="#78FFB5"/>
<stop offset="1" stop-color="#51C488"/>
</linearGradient>
<linearGradient id="paint4_linear_233_749" x1="48.3062" y1="20.2452" x2="39.2671" y2="25.416" gradientUnits="userSpaceOnUse">
<stop stop-color="#78FFB5"/>
<stop offset="1" stop-color="#51C488"/>
</linearGradient>
</defs>
</svg>
