<svg width="86" height="87" viewBox="0 0 86 87" fill="none" xmlns="http://www.w3.org/2000/svg">
<g filter="url(#filter0_i_233_655)">
<path d="M68.9931 81.7578H16.4336C15.1142 81.7578 14.0479 80.6882 14.0479 79.3689V44.5489C14.0479 43.9013 14.3108 43.2814 14.7764 42.8313L41.0542 17.4294C41.9801 16.5344 43.4489 16.5344 44.3749 17.4295L70.6526 42.8313C71.1183 43.2814 71.3812 43.9013 71.3812 44.5489V79.3689C71.3812 80.6883 70.3125 81.7578 68.9931 81.7578Z" fill="url(#paint0_linear_233_655)"/>
</g>
<path d="M6.13873 40.0612L41.07 6.87643C41.9921 6.00051 43.4387 6.0005 44.3607 6.87643L79.292 40.0612C80.2142 40.9372 80.2882 42.3821 79.4605 43.3478L76.8831 46.3547C75.9775 47.4112 74.3641 47.4732 73.3802 46.4892L44.4046 17.5137C43.4717 16.5807 41.9591 16.5807 41.0262 17.5137L12.0506 46.4892C11.0667 47.4732 9.45326 47.4112 8.54765 46.3547L5.9703 43.3478C5.14256 42.3821 5.21661 40.9372 6.13873 40.0612Z" fill="url(#paint1_linear_233_655)"/>
<path d="M33.1592 59.3023V81.7579H52.2703V59.3023C52.2703 57.983 51.2007 56.9135 49.8814 56.9135H35.5481C34.2287 56.9135 33.1592 57.983 33.1592 59.3023Z" fill="url(#paint2_linear_233_655)"/>
<defs>
<filter id="filter0_i_233_655" x="14.0479" y="11.9804" width="62.1108" height="69.7774" filterUnits="userSpaceOnUse" color-interpolation-filters="sRGB">
<feFlood flood-opacity="0" result="BackgroundImageFix"/>
<feBlend mode="normal" in="SourceGraphic" in2="BackgroundImageFix" result="shape"/>
<feColorMatrix in="SourceAlpha" type="matrix" values="0 0 0 0 0 0 0 0 0 0 0 0 0 0 0 0 0 0 127 0" result="hardAlpha"/>
<feOffset dx="4.77778" dy="-4.77778"/>
<feGaussianBlur stdDeviation="5.97222"/>
<feComposite in2="hardAlpha" operator="arithmetic" k2="-1" k3="1"/>
<feColorMatrix type="matrix" values="0 0 0 0 0.827451 0 0 0 0 0.921569 0 0 0 0 0.85098 0 0 0 1 0"/>
<feBlend mode="normal" in2="shape" result="effect1_innerShadow_233_655"/>
</filter>
<linearGradient id="paint0_linear_233_655" x1="21.2385" y1="76.1656" x2="69.8554" y2="35.3935" gradientUnits="userSpaceOnUse">
<stop offset="0.009" stop-color="#F8FAF5"/>
<stop offset="0.989" stop-color="#F5F9F6"/>
</linearGradient>
<linearGradient id="paint1_linear_233_655" x1="67.4391" y1="16.983" x2="38.4251" y2="43.5379" gradientUnits="userSpaceOnUse">
<stop stop-color="#78FFB5"/>
<stop offset="1" stop-color="#51C488"/>
</linearGradient>
<linearGradient id="paint2_linear_233_655" x1="48.8957" y1="63.6559" x2="37.3732" y2="68.219" gradientUnits="userSpaceOnUse">
<stop stop-color="#78FFB5"/>
<stop offset="1" stop-color="#51C488"/>
</linearGradient>
</defs>
</svg>
