<svg width="12" height="12" viewBox="0 0 12 12" fill="none" xmlns="http://www.w3.org/2000/svg">
<path d="M5.56127 0.0229063C5.51808 0.0401831 5.44897 0.0725775 5.4101 0.0984936C5.36907 0.124409 4.15536 1.32732 2.71057 2.77427C-0.183324 5.67032 0.00240342 5.46731 0.00240342 5.74591C0.00240342 5.96187 -0.0213524 5.95539 0.803623 5.95539H1.50334L1.50766 8.74562C1.51414 11.3436 1.5163 11.5445 1.55085 11.6201C1.61132 11.754 1.70851 11.8598 1.8316 11.9289L1.94606 11.9915L3.00428 11.998C4.164 12.0045 4.18775 12.0023 4.32813 11.8814C4.49874 11.7367 4.49226 11.7842 4.50522 10.523L4.51601 9.39999L4.56569 9.3028C4.63695 9.16675 4.72982 9.07604 4.85939 9.01773C4.96738 8.96806 4.98033 8.96806 5.7362 8.96806C6.48991 8.96806 6.50503 8.96806 6.61085 9.01773C6.7469 9.08036 6.82681 9.15595 6.89808 9.29201L6.95639 9.39999L6.96719 10.523C6.98014 11.7842 6.97366 11.7367 7.14427 11.8814C7.28465 12.0023 7.30841 12.0045 8.46812 11.998C9.51986 11.9915 9.52634 11.9915 9.61704 11.9419C9.74014 11.8771 9.8438 11.7691 9.90643 11.6438L9.95826 11.538L9.96474 8.74562L9.96906 5.95539H10.6688C11.4959 5.95539 11.47 5.96187 11.47 5.74591C11.4678 5.46515 11.6557 5.67248 8.75319 2.76563C6.84409 0.854362 6.08822 0.111451 6.01047 0.0682583C5.88306 -0.000849724 5.68005 -0.0202856 5.56127 0.0229063Z" fill="#767676"/>
</svg>
