<svg width="65" height="60" viewBox="0 0 65 60" fill="none" xmlns="http://www.w3.org/2000/svg">
<path d="M32.5 0C14.5506 0 0 11.4762 0 25.6326C0 34.785 6.08313 42.8158 15.2338 47.3506C14.7359 49.068 12.0347 58.3988 11.9272 59.1319C11.9272 59.1319 11.8625 59.6827 12.2191 59.8927C12.5756 60.1028 12.995 59.9396 12.995 59.9396C14.0175 59.7967 24.8522 52.1842 26.7275 50.8619C28.6009 51.1273 30.53 51.2652 32.5 51.2652C50.4491 51.2652 65 39.7893 65 25.6326C65 11.4762 50.4491 0 32.5 0Z" fill="url(#paint0_linear_971_1509)"/>
<path d="M14.5361 34.5796C13.5021 34.5796 12.6611 33.7763 12.6611 32.7885V21.6461H9.73551C8.72082 21.6461 7.89551 20.8221 7.89551 19.8096C7.89551 18.7971 8.72113 17.9731 9.73551 17.9731H19.3368C20.3514 17.9731 21.1768 18.7971 21.1768 19.8096C21.1768 20.8221 20.3511 21.6461 19.3368 21.6461H16.4111V32.7885C16.4111 33.7763 15.5702 34.5796 14.5361 34.5796Z" fill="white"/>
<path d="M30.9681 34.5554C30.1862 34.5554 29.5881 34.2378 29.4078 33.727L28.4793 31.296L22.7618 31.2957L21.8328 33.7283C21.6531 34.2384 21.0553 34.5554 20.2734 34.5554C19.8606 34.5554 19.4481 34.466 19.0815 34.2966C18.5647 34.0581 18.0678 33.4023 18.6372 31.6333L23.1222 19.8248C23.4381 18.9267 24.3978 18.0015 25.619 17.9736C26.8437 18.0011 27.8034 18.9267 28.12 19.8267L32.6031 31.6295C33.1737 33.4026 32.6768 34.0587 32.16 34.2966C31.7928 34.466 31.3809 34.5554 30.9681 34.5554ZM27.4934 27.9735L25.6206 22.6516L23.7478 27.9735H27.4934Z" fill="white"/>
<path d="M35.624 34.3061C34.6331 34.3061 33.8271 33.5346 33.8271 32.5868V19.8487C33.8271 18.8143 34.6859 17.9731 35.7412 17.9731C36.7965 17.9731 37.6553 18.8143 37.6553 19.8487V30.8676H41.6396C42.6306 30.8676 43.4365 31.6391 43.4365 32.5868C43.4365 33.5346 42.6306 34.3061 41.6396 34.3061H35.624Z" fill="white"/>
<path d="M46.0391 34.5552C45.005 34.5552 44.1641 33.7141 44.1641 32.6797V19.8487C44.1641 18.8143 45.005 17.9731 46.0391 17.9731C47.0731 17.9731 47.9141 18.8143 47.9141 19.8487V23.8799L53.1453 18.6471C53.4144 18.378 53.7841 18.2298 54.1853 18.2298C54.6534 18.2298 55.1234 18.4317 55.4756 18.7837C55.8041 19.1119 56 19.5342 56.0269 19.9728C56.0541 20.4151 55.9069 20.8206 55.6131 21.1147L51.3403 25.3882L55.9556 31.5043C56.2578 31.9041 56.3853 32.3974 56.3156 32.8938C56.2463 33.3902 55.9878 33.8291 55.5881 34.1307C55.26 34.3786 54.8703 34.5093 54.4606 34.5093C53.8663 34.5093 53.3206 34.238 52.9625 33.7638L48.5656 27.9355L47.915 28.5863V32.6784C47.9141 33.7141 47.0731 34.5552 46.0391 34.5552Z" fill="white"/>
<defs>
<linearGradient id="paint0_linear_971_1509" x1="65" y1="4.86487" x2="18.011" y2="33.8427" gradientUnits="userSpaceOnUse">
<stop stop-color="#78FFB5"/>
<stop offset="1" stop-color="#51C488"/>
</linearGradient>
</defs>
</svg>
