<svg width="14" height="26" viewBox="0 0 14 26" fill="none" xmlns="http://www.w3.org/2000/svg">
<path d="M10.2333 12.0214C10.8637 11.301 11.9588 11.228 12.6792 11.8583C13.3996 12.4887 13.4726 13.5838 12.8422 14.3042L3.74999 24.6954C3.11961 25.4158 2.02455 25.4888 1.30411 24.8584C0.583674 24.228 0.51067 23.133 1.14105 22.4125L10.2333 12.0214Z" fill="#51C488"/>
<path d="M10.2333 13.9785C10.8637 14.6989 11.9588 14.772 12.6792 14.1416C13.3996 13.5112 13.4726 12.4162 12.8422 11.6957L3.74999 1.30457C3.11961 0.584132 2.02455 0.511129 1.30411 1.14151C0.583674 1.77189 0.51067 2.86695 1.14105 3.58739L10.2333 13.9785Z" fill="#51C488"/>
</svg>
