<svg width="65" height="65" viewBox="0 0 65 65" fill="none" xmlns="http://www.w3.org/2000/svg">
<path d="M31.2038 0.0129933C30.1059 0.079059 29.2163 0.155289 28.5098 0.241682C23.4521 0.861683 18.7147 2.61496 14.4804 5.43546C9.87009 8.50497 6.10352 12.7179 3.57214 17.6424C1.56432 21.5504 0.446041 25.5143 0.0648094 30.0932C-0.0216031 31.074 -0.0216031 33.9402 0.0648094 34.9211C0.446041 39.4999 1.56432 43.4639 3.57214 47.3719C6.67282 53.4042 11.5983 58.3286 17.632 61.4286C21.5409 63.436 25.5057 64.5541 30.0855 64.9352C31.0666 65.0216 33.9334 65.0216 34.9145 64.9352C39.4943 64.5541 43.4591 63.436 47.368 61.4286C53.4017 58.3286 58.3272 53.4042 61.4279 47.3719C63.4357 43.4639 64.554 39.4999 64.9352 34.9211C65.0216 33.9402 65.0216 31.074 64.9352 30.0932C64.554 25.5143 63.4357 21.5504 61.4279 17.6424C58.3272 11.6101 53.4017 6.68562 47.368 3.58562C43.5405 1.6189 39.5858 0.485617 35.2195 0.109551C34.3858 0.0333212 31.8341 -0.0276625 31.2038 0.0129933ZM34.9602 3.97185C41.6191 4.54103 47.7645 7.38185 52.568 12.0979C57.5495 16.9919 60.5027 23.3291 61.072 30.3473C61.1483 31.3281 61.1483 33.6861 61.072 34.667C60.5129 41.5276 57.6969 47.7124 52.9137 52.5708C48.0085 57.5562 41.7004 60.4936 34.6603 61.0729C33.6793 61.1542 31.3207 61.1542 30.3397 61.0729C23.2945 60.4936 16.9813 57.5562 12.0863 52.5758C7.29296 47.6921 4.49726 41.5632 3.92796 34.667C3.84663 33.6861 3.84663 31.3281 3.92796 30.3473C4.51251 23.2935 7.45054 16.9919 12.4269 12.0979C16.8898 7.71727 22.5321 4.94251 28.6369 4.12939C30.7514 3.84988 32.866 3.79398 34.9602 3.97185Z" fill="url(#paint0_linear_971_1519)"/>
<path d="M25.8036 9.83875C25.5226 9.91555 22.2702 11.7793 22.0777 11.9738C21.6457 12.4039 21.5469 13.0337 21.8175 13.5559C22.0985 14.0935 27.7967 23.7858 27.932 23.9599C28.2338 24.3336 28.8999 24.5538 29.3683 24.4258C29.6077 24.3644 32.8133 22.557 33.0891 22.3317C33.4429 22.0398 33.6355 21.4152 33.5106 20.9646C33.4794 20.852 32.0847 18.42 30.4091 15.563C27.9424 11.3543 27.318 10.3252 27.1254 10.1511C26.7716 9.82339 26.272 9.70563 25.8036 9.83875Z" fill="url(#paint1_linear_971_1519)"/>
<path d="M20.1463 14.417C19.08 15.0843 18.5468 15.4847 17.9788 16.0442C16.3145 17.6816 15.871 19.3088 16.155 22.6914C16.5636 27.5267 18.8906 33.9892 22.3787 39.964C25.6525 45.5693 29.584 50.2095 33.2166 52.7555C35.0852 54.0644 36.2462 54.5161 37.751 54.5161C38.7576 54.5161 39.5947 54.3108 40.7707 53.7718C41.3188 53.5152 42.5895 52.8222 42.6343 52.7504C42.6493 52.7196 36.9687 42.5254 36.6648 42.0326C36.6349 41.9813 36.58 41.9916 36.4306 42.0686C36.0867 42.2482 35.5187 42.4227 35.0752 42.4792C33.4458 42.6845 31.5174 41.7195 29.7285 39.7998C27.5161 37.4283 25.7621 33.9327 25.219 30.8016C24.8153 28.502 25.1193 26.649 26.091 25.4735C26.2554 25.2733 26.8085 24.796 26.9181 24.76C26.958 24.7446 25.8368 22.7017 23.9782 19.3755C22.3239 16.4291 20.9586 14.0012 20.9386 13.9807C20.9187 13.955 20.5649 14.1552 20.1463 14.417Z" fill="url(#paint2_linear_971_1519)"/>
<path d="M41.3668 37.0591C41.0802 37.095 41.1271 37.0745 39.2141 38.1563C38.3593 38.6383 37.5775 39.11 37.4784 39.2023C37.1032 39.5561 36.9468 40.1509 37.1032 40.6021C37.1918 40.8584 43.1234 50.9899 43.3423 51.2566C43.7124 51.718 44.4473 51.8564 45.0415 51.5744C45.4898 51.3642 48.2419 49.7953 48.4556 49.6261C48.7475 49.3954 48.9247 49.0108 48.9247 48.5904C48.9247 48.4007 48.8986 48.1751 48.8621 48.0981C48.6849 47.688 42.7377 37.6231 42.5761 37.459C42.2581 37.1309 41.8412 36.9925 41.3668 37.0591Z" fill="url(#paint3_linear_971_1519)"/>
<defs>
<linearGradient id="paint0_linear_971_1519" x1="65" y1="59.7297" x2="16.0144" y2="31.8444" gradientUnits="userSpaceOnUse">
<stop stop-color="#78FFB5"/>
<stop offset="1" stop-color="#51C488"/>
</linearGradient>
<linearGradient id="paint1_linear_971_1519" x1="33.5487" y1="23.2723" x2="23.7694" y2="18.7658" gradientUnits="userSpaceOnUse">
<stop stop-color="#78FFB5"/>
<stop offset="1" stop-color="#51C488"/>
</linearGradient>
<linearGradient id="paint2_linear_971_1519" x1="42.6343" y1="51.2293" x2="19.3688" y2="42.5522" gradientUnits="userSpaceOnUse">
<stop stop-color="#78FFB5"/>
<stop offset="1" stop-color="#51C488"/>
</linearGradient>
<linearGradient id="paint3_linear_971_1519" x1="48.9247" y1="50.5302" x2="39.1454" y2="46.0236" gradientUnits="userSpaceOnUse">
<stop stop-color="#78FFB5"/>
<stop offset="1" stop-color="#51C488"/>
</linearGradient>
</defs>
</svg>
