<svg width="20" height="21" viewBox="0 0 20 21" fill="none" xmlns="http://www.w3.org/2000/svg">
<path d="M10.002 3.77783C10.0523 3.77784 15.7387 3.77917 17.165 4.16553C17.954 4.37577 18.5749 4.99994 18.7852 5.79541C19.1668 7.23452 19.1631 10.2358 19.1631 10.2358C19.1631 10.2568 19.1625 13.2422 18.7822 14.6763C18.572 15.4685 17.9502 16.0927 17.1611 16.3062C15.7309 16.6909 9.99805 16.6909 9.99805 16.6909C9.94772 16.6909 4.25805 16.6893 2.83496 16.3062C2.04602 16.0959 1.42511 15.4717 1.21484 14.6763C0.834577 13.2422 0.833013 10.2568 0.833008 10.2358C0.833008 10.2358 0.833012 7.23494 1.21777 5.79248C1.42798 5.00016 2.04978 4.37604 2.83887 4.1626C4.26892 3.77786 10.002 3.77783 10.002 3.77783ZM8.12598 12.9624L12.9189 10.2358L8.12598 7.50928V12.9624Z" fill="#111111"/>
</svg>
