<svg width="86" height="87" viewBox="0 0 86 87" fill="none" xmlns="http://www.w3.org/2000/svg">
<g filter="url(#filter0_i_233_692)">
<rect x="12.8994" y="9.48511" width="61.275" height="59.5728" rx="4.3" fill="url(#paint0_linear_233_692)"/>
</g>
<path d="M21.4102 69.0581H35.0268V75.4185C35.0268 76.6059 34.0642 77.5685 32.8768 77.5685H23.5602C22.3727 77.5685 21.4102 76.6059 21.4102 75.4185V69.0581Z" fill="url(#paint1_linear_233_692)"/>
<path d="M52.0479 69.0581H65.6645V75.4185C65.6645 76.6059 64.7019 77.5685 63.5145 77.5685H54.1978C53.0104 77.5685 52.0479 76.6059 52.0479 75.4185V69.0581Z" fill="url(#paint2_linear_233_692)"/>
<rect x="19.708" y="24.8038" width="47.6583" height="23.8291" rx="2.15" fill="url(#paint3_linear_233_692)"/>
<ellipse cx="26.5164" cy="58.8455" rx="5.10625" ry="5.10624" fill="url(#paint4_linear_233_692)"/>
<ellipse cx="26.5164" cy="58.8455" rx="5.10625" ry="5.10624" fill="white"/>
<ellipse cx="60.5574" cy="58.8455" rx="5.10625" ry="5.10624" fill="url(#paint5_linear_233_692)"/>
<ellipse cx="60.5574" cy="58.8455" rx="5.10625" ry="5.10624" fill="white"/>
<rect x="35.0264" y="16.2936" width="17.0208" height="3.40416" rx="1.075" fill="url(#paint6_linear_233_692)"/>
<defs>
<filter id="filter0_i_233_692" x="12.8994" y="5.18511" width="65.5754" height="63.8729" filterUnits="userSpaceOnUse" color-interpolation-filters="sRGB">
<feFlood flood-opacity="0" result="BackgroundImageFix"/>
<feBlend mode="normal" in="SourceGraphic" in2="BackgroundImageFix" result="shape"/>
<feColorMatrix in="SourceAlpha" type="matrix" values="0 0 0 0 0 0 0 0 0 0 0 0 0 0 0 0 0 0 127 0" result="hardAlpha"/>
<feOffset dx="4.3" dy="-4.3"/>
<feGaussianBlur stdDeviation="5.375"/>
<feComposite in2="hardAlpha" operator="arithmetic" k2="-1" k3="1"/>
<feColorMatrix type="matrix" values="0 0 0 0 0.827451 0 0 0 0 0.921569 0 0 0 0 0.85098 0 0 0 1 0"/>
<feBlend mode="normal" in2="shape" result="effect1_innerShadow_233_692"/>
</filter>
<linearGradient id="paint0_linear_233_692" x1="20.5844" y1="64.0053" x2="65.1918" y2="19.7551" gradientUnits="userSpaceOnUse">
<stop offset="0.009" stop-color="#F8FAF5"/>
<stop offset="0.989" stop-color="#F5F9F6"/>
</linearGradient>
<linearGradient id="paint1_linear_233_692" x1="32.6224" y1="71.3677" x2="26.9642" y2="76.0285" gradientUnits="userSpaceOnUse">
<stop stop-color="#78FFB5"/>
<stop offset="1" stop-color="#51C488"/>
</linearGradient>
<linearGradient id="paint2_linear_233_692" x1="63.2601" y1="71.3677" x2="57.6019" y2="76.0285" gradientUnits="userSpaceOnUse">
<stop stop-color="#78FFB5"/>
<stop offset="1" stop-color="#51C488"/>
</linearGradient>
<linearGradient id="paint3_linear_233_692" x1="58.9508" y1="31.2708" x2="42.816" y2="47.8839" gradientUnits="userSpaceOnUse">
<stop stop-color="#78FFB5"/>
<stop offset="1" stop-color="#51C488"/>
</linearGradient>
<linearGradient id="paint4_linear_233_692" x1="29.8193" y1="56.5108" x2="24.1887" y2="59.4096" gradientUnits="userSpaceOnUse">
<stop stop-color="#78FFB5"/>
<stop offset="1" stop-color="#51C488"/>
</linearGradient>
<linearGradient id="paint5_linear_233_692" x1="63.8604" y1="56.5108" x2="58.2297" y2="59.4096" gradientUnits="userSpaceOnUse">
<stop stop-color="#78FFB5"/>
<stop offset="1" stop-color="#51C488"/>
</linearGradient>
<linearGradient id="paint6_linear_233_692" x1="49.0417" y1="17.2174" x2="47.485" y2="21.2246" gradientUnits="userSpaceOnUse">
<stop stop-color="#78FFB5"/>
<stop offset="1" stop-color="#51C488"/>
</linearGradient>
</defs>
</svg>
