<svg width="20" height="21" viewBox="0 0 20 21" fill="none" xmlns="http://www.w3.org/2000/svg">
<path d="M4.80629 8.47998C4.60654 8.47998 4.42898 8.55869 4.29581 8.70487C4.15155 8.85105 4.08496 9.03096 4.08496 9.2446C4.08496 9.45824 4.15155 9.62691 4.29581 9.78433C4.44008 9.93051 4.60654 10.0092 4.80629 10.0092C5.00605 10.0092 5.1836 9.93051 5.32787 9.78433C5.47214 9.63815 5.54982 9.45824 5.54982 9.2446C5.54982 9.03096 5.47214 8.85105 5.32787 8.70487C5.1836 8.54745 5.01714 8.47998 4.80629 8.47998Z" fill="#111111"/>
<path d="M11.0319 8.46875C10.8321 8.46875 10.6546 8.54746 10.5214 8.69364C10.3771 8.83981 10.3105 9.01972 10.3105 9.23337C10.3105 9.44701 10.3771 9.61568 10.5214 9.7731C10.6657 9.91927 10.8321 9.99798 11.0319 9.99798C11.2316 9.99798 11.4092 9.91927 11.5535 9.7731C11.6977 9.62692 11.7754 9.44701 11.7754 9.23337C11.7754 9.01972 11.6977 8.85106 11.5535 8.69364C11.4203 8.53622 11.2427 8.46875 11.0319 8.46875Z" fill="#111111"/>
<path d="M15.194 8.47998C14.9942 8.47998 14.8167 8.55869 14.6835 8.70487C14.5392 8.85105 14.4727 9.03096 14.4727 9.2446C14.4727 9.45824 14.5392 9.62691 14.6835 9.78433C14.8278 9.93051 14.9942 10.0092 15.194 10.0092C15.3937 10.0092 15.5713 9.93051 15.7156 9.78433C15.8598 9.63815 15.9375 9.45824 15.9375 9.2446C15.9375 9.03096 15.8598 8.85105 15.7156 8.70487C15.5713 8.54745 15.3937 8.47998 15.194 8.47998Z" fill="#111111"/>
<path d="M17.0358 2.92529H2.96424C1.88779 2.92529 1 3.82484 1 4.91555V12.9778C1 14.0685 1.88779 14.968 2.96424 14.968H8.49075C8.49075 14.968 9.5561 17.9253 9.94451 17.9253C10.3329 17.9253 11.4871 14.968 11.4871 14.968H17.0358C18.1122 14.968 19 14.0685 19 12.9778V4.91555C19 3.82484 18.1122 2.92529 17.0358 2.92529ZM6.22688 10.3691C5.94945 10.6839 5.51665 10.8188 5.05055 10.8188C4.62885 10.8188 4.31813 10.6952 4.09618 10.5152H4.08508V10.7401H3.03083V6.07372H4.08508V7.86158H4.10728C4.39581 7.6142 4.77312 7.53549 5.21702 7.513C5.59433 7.50176 5.99383 7.73789 6.23798 8.019C6.47102 8.30011 6.64858 8.73864 6.64858 9.22215C6.64858 9.75063 6.51541 10.0542 6.22688 10.3691ZM8.50185 10.7851H7.4254C7.4254 10.7851 7.4254 8.33384 7.4254 7.89531C7.4254 7.23189 6.90382 7.14193 6.90382 7.14193V5.98376C6.90382 5.98376 8.41307 6.07372 8.50185 7.92904C8.50185 8.45753 8.50185 10.7851 8.50185 10.7851ZM12.73 9.89681C12.6412 10.1105 12.508 10.2904 12.3305 10.459C12.164 10.6164 11.9642 10.7401 11.7423 10.8301C11.5203 10.92 11.2873 10.965 11.0432 10.965C10.799 10.965 10.566 10.92 10.3551 10.8301C10.1332 10.7401 9.93342 10.6164 9.76695 10.459C9.5894 10.2904 9.45623 10.0992 9.36745 9.89681C9.27867 9.69441 9.23428 9.46952 9.23428 9.23339C9.23428 8.99726 9.27867 8.78361 9.36745 8.56997C9.45623 8.36757 9.5894 8.17642 9.76695 8.00775C9.94451 7.85033 10.1332 7.72664 10.3551 7.63669C10.5771 7.54673 10.8101 7.50176 11.0432 7.50176C11.2873 7.50176 11.5203 7.54673 11.7423 7.63669C11.9642 7.72664 12.164 7.85033 12.3305 8.00775C12.508 8.17642 12.6301 8.35633 12.73 8.56997C12.8187 8.78361 12.8631 8.99726 12.8631 9.23339C12.8631 9.46952 12.8187 9.68316 12.73 9.89681ZM16.9692 10.3578C16.9692 11.1787 16.8138 11.6734 16.4587 12.022C16.0259 12.438 15.4155 12.4605 14.9051 12.3931V11.5497C15.3379 11.5947 15.926 11.3024 15.926 10.7401V10.5265H15.9149C15.6708 10.8638 15.3268 10.9875 14.8496 10.9875C14.4168 10.9875 14.0395 10.8301 13.7842 10.5265C13.529 10.2229 13.4069 9.8181 13.4069 9.3121C13.4069 8.73864 13.5512 8.28886 13.8286 7.95153C14.1171 7.6142 14.5166 7.45678 14.9827 7.45678C15.3933 7.45678 15.6597 7.55798 15.9149 7.79411H15.926V7.53549H16.9803V10.3578H16.9692Z" fill="#111111"/>
</svg>
