<svg width="86" height="87" viewBox="0 0 86 87" fill="none" xmlns="http://www.w3.org/2000/svg">
<g filter="url(#filter0_i_233_672)">
<path d="M21.6924 10.0911C21.6924 7.45243 23.8315 5.31335 26.4702 5.31335H58.959C61.5977 5.31335 63.7368 7.45244 63.7368 10.0911V81.7578H21.6924V10.0911Z" fill="url(#paint0_linear_233_672)"/>
</g>
<rect x="27.4258" y="14.869" width="13.3778" height="5.73333" rx="1.19444" fill="url(#paint1_linear_233_672)"/>
<rect x="27.4258" y="30.1577" width="13.3778" height="5.73333" rx="1.19444" fill="url(#paint2_linear_233_672)"/>
<rect x="27.4258" y="45.4468" width="13.3778" height="5.73333" rx="1.19444" fill="url(#paint3_linear_233_672)"/>
<rect x="44.626" y="14.869" width="13.3778" height="5.73333" rx="1.19444" fill="url(#paint4_linear_233_672)"/>
<rect x="44.626" y="30.1577" width="13.3778" height="5.73333" rx="1.19444" fill="url(#paint5_linear_233_672)"/>
<rect x="44.626" y="45.4468" width="13.3778" height="5.73333" rx="1.19444" fill="url(#paint6_linear_233_672)"/>
<path d="M35.0703 66.9467C35.0703 65.6274 36.1399 64.5579 37.4592 64.5579H47.9703C49.2897 64.5579 50.3592 65.6274 50.3592 66.9468V81.7579H35.0703V66.9467Z" fill="url(#paint7_linear_233_672)"/>
<path d="M63.7373 37.8025H78.5484C79.8678 37.8025 80.9373 38.872 80.9373 40.1914V79.3692C80.9373 80.6885 79.8678 81.7581 78.5484 81.7581H63.7373V37.8025Z" fill="url(#paint8_linear_233_672)"/>
<path d="M4.49316 40.1914C4.49316 38.872 5.56271 37.8025 6.88205 37.8025H21.6932V81.7581H6.88205C5.56271 81.7581 4.49316 80.6885 4.49316 79.3692V40.1914Z" fill="url(#paint9_linear_233_672)"/>
<rect x="67.5596" y="43.5356" width="9.55555" height="5.73333" rx="1.19444" fill="white"/>
<rect x="8.31348" y="43.5356" width="9.55555" height="5.73333" rx="1.19444" fill="white"/>
<rect x="67.5596" y="55.0023" width="9.55555" height="5.73333" rx="1.19444" fill="white"/>
<rect x="8.31348" y="55.0023" width="9.55555" height="5.73333" rx="1.19444" fill="white"/>
<defs>
<filter id="filter0_i_233_672" x="21.6924" y="0.535577" width="46.8217" height="81.2222" filterUnits="userSpaceOnUse" color-interpolation-filters="sRGB">
<feFlood flood-opacity="0" result="BackgroundImageFix"/>
<feBlend mode="normal" in="SourceGraphic" in2="BackgroundImageFix" result="shape"/>
<feColorMatrix in="SourceAlpha" type="matrix" values="0 0 0 0 0 0 0 0 0 0 0 0 0 0 0 0 0 0 127 0" result="hardAlpha"/>
<feOffset dx="4.77778" dy="-4.77778"/>
<feGaussianBlur stdDeviation="5.97222"/>
<feComposite in2="hardAlpha" operator="arithmetic" k2="-1" k3="1"/>
<feColorMatrix type="matrix" values="0 0 0 0 0.827451 0 0 0 0 0.921569 0 0 0 0 0.85098 0 0 0 1 0"/>
<feBlend mode="normal" in2="shape" result="effect1_innerShadow_233_672"/>
</filter>
<linearGradient id="paint0_linear_233_672" x1="26.9655" y1="75.2742" x2="74.3582" y2="50.1352" gradientUnits="userSpaceOnUse">
<stop offset="0.009" stop-color="#F8FAF5"/>
<stop offset="0.989" stop-color="#F5F9F6"/>
</linearGradient>
<linearGradient id="paint1_linear_233_672" x1="38.4413" y1="16.425" x2="34.622" y2="21.013" gradientUnits="userSpaceOnUse">
<stop stop-color="#78FFB5"/>
<stop offset="1" stop-color="#51C488"/>
</linearGradient>
<linearGradient id="paint2_linear_233_672" x1="38.4413" y1="31.7137" x2="34.622" y2="36.3017" gradientUnits="userSpaceOnUse">
<stop stop-color="#78FFB5"/>
<stop offset="1" stop-color="#51C488"/>
</linearGradient>
<linearGradient id="paint3_linear_233_672" x1="38.4413" y1="47.0027" x2="34.622" y2="51.5907" gradientUnits="userSpaceOnUse">
<stop stop-color="#78FFB5"/>
<stop offset="1" stop-color="#51C488"/>
</linearGradient>
<linearGradient id="paint4_linear_233_672" x1="55.6415" y1="16.425" x2="51.8222" y2="21.013" gradientUnits="userSpaceOnUse">
<stop stop-color="#78FFB5"/>
<stop offset="1" stop-color="#51C488"/>
</linearGradient>
<linearGradient id="paint5_linear_233_672" x1="55.6415" y1="31.7137" x2="51.8222" y2="36.3017" gradientUnits="userSpaceOnUse">
<stop stop-color="#78FFB5"/>
<stop offset="1" stop-color="#51C488"/>
</linearGradient>
<linearGradient id="paint6_linear_233_672" x1="55.6415" y1="47.0027" x2="51.8222" y2="51.5907" gradientUnits="userSpaceOnUse">
<stop stop-color="#78FFB5"/>
<stop offset="1" stop-color="#51C488"/>
</linearGradient>
<linearGradient id="paint7_linear_233_672" x1="47.6595" y1="69.2257" x2="38.8423" y2="73.2606" gradientUnits="userSpaceOnUse">
<stop stop-color="#78FFB5"/>
<stop offset="1" stop-color="#51C488"/>
</linearGradient>
<linearGradient id="paint8_linear_233_672" x1="77.9001" y1="49.7315" x2="66.3714" y2="52.054" gradientUnits="userSpaceOnUse">
<stop stop-color="#78FFB5"/>
<stop offset="1" stop-color="#51C488"/>
</linearGradient>
<linearGradient id="paint9_linear_233_672" x1="18.656" y1="49.7315" x2="7.12728" y2="52.054" gradientUnits="userSpaceOnUse">
<stop stop-color="#78FFB5"/>
<stop offset="1" stop-color="#51C488"/>
</linearGradient>
</defs>
</svg>
