<svg width="20" height="21" viewBox="0 0 20 21" fill="none" xmlns="http://www.w3.org/2000/svg">
<path d="M10.0002 7.59717C8.57379 7.59717 7.36133 8.80963 7.36133 10.2361C7.36133 11.6625 8.57379 12.8749 10.0002 12.8749C11.4266 12.8749 12.6391 11.6625 12.6391 10.2361C12.6391 8.80963 11.4266 7.59717 10.0002 7.59717Z" fill="#111111"/>
<path d="M13.3822 2.31934H6.68907C4.09816 2.31934 2.08301 4.33449 2.08301 6.85343V13.5466C2.08301 16.1375 4.09816 18.1527 6.68907 18.1527H13.3822C15.9012 18.1527 17.9163 16.1375 17.9163 13.5466V6.85343C17.9163 4.33449 15.9012 2.31934 13.3822 2.31934ZM9.99967 14.4102C7.69664 14.4102 5.8974 12.539 5.8974 10.308C5.8974 8.07691 7.69664 6.13373 9.99967 6.13373C12.3027 6.13373 14.1019 8.00494 14.1019 10.236C14.1019 12.4671 12.3027 14.4102 9.99967 14.4102ZM14.2459 6.99737C13.7421 6.99737 13.3103 6.56555 13.3103 6.06176C13.3103 5.55797 13.7421 5.12615 14.2459 5.12615C14.7497 5.12615 15.1815 5.55797 15.1815 6.06176C15.1815 6.56555 14.7497 6.99737 14.2459 6.99737Z" fill="#111111"/>
</svg>
